<svg width="75" height="75" viewBox="0 0 75 75" fill="none" xmlns="http://www.w3.org/2000/svg">
<g clip-path="url(#clip0_229_2868)">
<path d="M26.7701 24.3281L23.8591 26.6075C18.8326 30.5433 20.7775 41.4157 28.1969 50.8913C35.6163 60.3668 45.7003 64.8568 50.7269 60.921L53.6379 58.6417C52.6078 59.4482 51.294 59.9145 50.0209 60.0194C44.6349 60.5581 37.0172 56.171 31.102 48.6166C25.1868 41.0621 22.7503 32.6087 24.5651 27.5091C24.9739 26.2934 25.7441 25.1315 26.7701 24.3281Z" fill="#F9E662"/>
<path d="M25.4902 25.6914C25.1047 26.2309 24.791 26.8378 24.5653 27.5088C22.7505 32.6084 25.187 41.0618 31.1023 48.6163C37.0175 56.1707 44.6351 60.5578 50.0212 60.0191C51.2941 59.9142 52.608 59.4479 53.6381 58.6414C58.6646 54.7055 56.7244 43.8389 49.305 34.3634C41.2862 24.1224 29.7739 19.4785 25.4902 25.6914Z" fill="#FFC700"/>
<path d="M56.118 51.684C54.9909 51.2357 53.8311 50.9147 52.7184 50.3753C51.4683 49.7553 50.2594 49.0285 49.1137 48.2141C47.9403 47.4015 46.7785 46.4564 45.6292 45.3925C42.4262 42.8287 39.1986 40.3082 35.8919 37.8486C31.3834 34.4976 27.6372 30.6189 22.3311 28.7832C19.1146 27.6632 15.9604 26.9113 12.6023 27.508C11.3315 31.7037 12.5767 36.4228 15.0393 40.1393C17.4013 39.7037 20.006 40.2566 22.1972 41.3448C25.9685 43.21 28.9562 46.3645 32.1852 49.0028C34.1711 50.6252 36.2405 52.1519 38.4664 53.4387C42.7009 55.8887 46.3059 57.5942 51.0722 56.3852C52.7864 55.9393 55.5354 53.4103 56.118 51.684Z" fill="#FF5252"/>
<path d="M50.8369 50.1194C50.3239 51.9622 49.6304 53.7546 48.7695 55.4628C51.5854 55.1664 54.3726 53.623 55.9178 51.2504C54.7645 50.6095 53.5447 50.0607 52.2331 49.917C51.776 49.867 51.2901 50.0423 50.8369 50.1194Z" fill="#FF0041"/>
<path d="M34.1231 23.5693C33.2336 23.7424 32.4268 24.1041 31.7365 24.6447L29.2643 26.579C27.9688 27.592 27.2183 29.1563 26.9844 31.066C30.0896 33.0264 32.8047 35.5549 35.8917 37.8493C39.1984 40.3089 42.4261 42.8295 45.629 45.3932C39.7164 39.9498 34.2714 31.1927 34.1231 23.5693Z" fill="#C50241"/>
<path d="M39.8405 14.0977L36.9276 16.375C34.9813 17.8981 34.0785 20.4578 34.1226 23.5685C34.3349 34.4781 45.6545 48.8879 56.1375 51.6756C59.1543 52.4701 61.8547 52.212 63.7936 50.6824L66.7065 48.4051C63.9839 50.5481 60.0647 49.9672 56.8612 48.636C44.8854 43.7355 34.3645 26.4405 37.6355 17.2755C38.0332 16.0741 38.8184 14.8772 39.8405 14.0977Z" fill="#F9E662"/>
<path d="M38.5566 15.459C38.1711 15.9985 37.8574 16.6054 37.6317 17.2763C35.8169 22.376 38.2534 30.8294 44.1687 38.3838C50.0839 45.9383 57.7015 50.3254 63.0876 49.7866C64.3605 49.6818 65.6744 49.2155 66.7045 48.4089C71.7311 44.4731 69.7908 33.6065 62.3714 24.131C54.3526 13.89 42.8403 9.24609 38.5566 15.459Z" fill="#FFC700"/>
<path d="M63.0876 32.3439C64.5498 31.1976 63.8492 27.8628 61.5228 24.8955C59.1965 21.9282 56.1252 20.4519 54.6631 21.5982C53.2009 22.7446 53.9015 26.0793 56.2279 29.0467C58.5543 32.014 61.6255 33.4903 63.0876 32.3439Z" fill="white"/>
<path d="M51.9587 39.4523C53.4209 38.306 52.7203 34.9712 50.3939 32.0039C48.0675 29.0366 44.9963 27.5603 43.5342 28.7066C42.072 29.853 42.7726 33.1877 45.099 36.1551C47.4253 39.1224 50.4965 40.5987 51.9587 39.4523Z" fill="white"/>
<path d="M65.2009 46.4777C66.663 45.3314 65.9625 41.9966 63.6361 39.0293C61.3097 36.0619 58.2385 34.5857 56.7764 35.732C55.3142 36.8783 56.0148 40.2131 58.3412 43.1805C60.6675 46.1478 63.7387 47.624 65.2009 46.4777Z" fill="white"/>
<path d="M49.9235 26.9846C51.3857 25.8382 50.6851 22.5035 48.3588 19.5361C46.0324 16.5688 42.9612 15.0926 41.499 16.2389C40.0369 17.3852 40.7375 20.72 43.0638 23.6873C45.3902 26.6546 48.4614 28.1309 49.9235 26.9846Z" fill="white"/>
<path d="M54.6793 21.6344C54.3965 21.8558 54.1946 22.1565 54.0703 22.5199C55.6781 22.3638 58.0479 23.7876 59.9304 26.1919C61.8129 28.5961 62.6269 31.2382 62.0896 32.7616C62.4723 32.7282 62.8125 32.6042 63.0954 32.3828C64.5568 31.2385 63.8587 27.9068 61.5332 24.9369C59.2077 21.967 56.1407 20.4901 54.6793 21.6344Z" fill="#BBBBBB"/>
<path d="M63.0876 32.3439C64.5498 31.1976 63.8492 27.8628 61.5228 24.8955C59.1965 21.9282 56.1252 20.4519 54.6631 21.5982C53.2009 22.7446 53.9015 26.0793 56.2279 29.0467C58.5543 32.014 61.6255 33.4903 63.0876 32.3439Z" fill="white"/>
<path d="M54.6793 21.6344C54.3965 21.8558 54.1946 22.1565 54.0703 22.5199C55.6781 22.3638 58.0479 23.7876 59.9304 26.1919C61.8129 28.5961 62.6269 31.2382 62.0896 32.7616C62.4723 32.7282 62.8125 32.6042 63.0954 32.3828C64.5568 31.2385 63.8587 27.9068 61.5332 24.9369C59.2077 21.967 56.1407 20.4901 54.6793 21.6344Z" fill="#BBBBBB"/>
<path d="M63.0876 32.3439C64.5498 31.1976 63.8492 27.8628 61.5228 24.8955C59.1965 21.9282 56.1252 20.4519 54.6631 21.5982C53.2009 22.7446 53.9015 26.0793 56.2279 29.0467C58.5543 32.014 61.6255 33.4903 63.0876 32.3439Z" fill="white"/>
<path d="M54.6793 21.6344C54.3965 21.8558 54.1946 22.1565 54.0703 22.5199C55.6781 22.3638 58.0479 23.7876 59.9304 26.1919C61.8129 28.5961 62.6269 31.2382 62.0896 32.7616C62.4723 32.7282 62.8125 32.6042 63.0954 32.3828C64.5568 31.2385 63.8587 27.9068 61.5332 24.9369C59.2077 21.967 56.1407 20.4901 54.6793 21.6344Z" fill="#FF9F00"/>
<path d="M55.2147 33.3529C55.7771 32.9119 55.5079 31.6296 54.6134 30.4886C53.7189 29.3477 52.5378 28.7802 51.9754 29.2211C51.413 29.6621 51.6822 30.9445 52.5767 32.0854C53.4712 33.2264 54.6522 33.7938 55.2147 33.3529Z" fill="white"/>
<path d="M51.9842 29.2583C51.8754 29.3435 51.7978 29.4591 51.75 29.5988C53.1675 29.4612 55.308 32.1923 54.8337 33.5371C54.9808 33.5242 55.1117 33.4766 55.2204 33.3914C55.7824 32.9514 55.5139 31.6703 54.6197 30.5282C53.7255 29.3862 52.5461 28.8183 51.9842 29.2583Z" fill="#FF9F00"/>
<path d="M43.5464 28.7438C43.2635 28.9653 43.0617 29.2659 42.9375 29.6292C44.5498 29.479 46.9195 30.903 48.7974 33.3013C50.6753 35.6996 51.4894 38.3417 50.9568 39.8709C51.3394 39.8376 51.6796 39.7137 51.9625 39.4921C53.4239 38.3479 52.7258 35.0162 50.4003 32.0462C48.0749 29.0763 45.0078 27.5995 43.5464 28.7438Z" fill="#FF9F00"/>
<path d="M56.7847 35.7731C56.5017 35.9946 56.2999 36.2952 56.1758 36.6586C57.7835 36.5023 60.1531 37.9264 62.0356 40.3306C63.9182 42.7349 64.7323 45.3769 64.195 46.9002C64.5775 46.8668 64.9178 46.743 65.2007 46.5214C66.6621 45.3772 65.964 42.0455 63.6385 39.0755C61.313 36.1056 58.2461 34.6288 56.7847 35.7731Z" fill="#FF9F00"/>
<path d="M41.5074 16.2625C41.2245 16.484 41.0226 16.7847 40.8984 17.148C42.5063 16.9918 44.8805 18.4217 46.763 20.8259C48.6409 23.2243 49.4596 25.8722 48.9224 27.3956C49.3049 27.3621 49.6451 27.2383 49.9281 27.0168C51.3894 25.8725 50.6868 22.5349 48.3659 19.5709C46.0404 16.601 42.9688 15.1182 41.5074 16.2625Z" fill="#FF9F00"/>
<path d="M12.6028 27.5088C6.7074 30.7713 4.52144 35.8064 5.89776 42.3955C7.28146 48.9909 11.1401 53.6933 15.8397 58.5173C19.0109 55.8683 22.1885 53.2118 25.3662 50.5555C21.4114 47.753 18.6581 45.0745 15.7573 41.1788C12.8254 37.2754 11.223 32.1434 12.6028 27.5088Z" fill="#E6033A"/>
<path d="M8.30078 45.4053C9.31519 49.4828 12.2883 53.1368 15.4407 55.9148C17.7086 54.0282 19.9765 52.1417 22.2445 50.2551C18.8148 48.0953 15.8324 44.7443 13.9288 41.166C12.1024 42.409 10.1272 44.1624 8.30078 45.4053Z" fill="#C50241"/>
<path d="M10.5721 29.6455C9.65064 32.9801 10.4049 36.7526 12.5011 39.5049C10.8543 40.6269 9.20748 41.749 7.56069 42.871C5.89226 38.3519 7.34343 33.2207 10.5721 29.6455Z" fill="#C50241"/>
<path d="M15.5498 38.8861C18.969 38.5429 22.5019 39.4846 25.2966 41.484C26.5295 39.1533 28.2675 37.0145 30.0888 35.1079C26.3336 31.6594 21.1415 29.6882 16.0477 29.9026C15.0851 32.4817 14.8123 36.2338 15.5498 38.8861Z" fill="#FF0041"/>
<path d="M31.0644 36.3896C29.8951 38.4723 28.3993 40.3712 26.6484 41.9957C29.4518 44.1278 32.3439 46.6622 34.9748 48.9654C36.581 46.9218 38.2893 44.8887 39.8957 42.845C36.9131 40.6008 33.8621 38.7551 31.0644 36.3896Z" fill="#FF0041"/>
<path d="M50.0698 49.5204C46.5557 48.2422 43.166 46.3392 40.5188 43.6982C39.3112 45.8528 37.8133 47.8444 36.0781 49.6021C39.1029 52.6979 43.2235 54.9147 47.4994 55.585C47.4994 55.585 49.3257 51.5548 50.0698 49.5204Z" fill="#FF0041"/>
<g opacity="0.18">
<path d="M16.3354 27.3579C15.1359 27.2615 13.8887 27.2794 12.6009 27.5082C11.5128 31.1007 12.2969 35.2482 14.0447 38.4337C13.0303 34.4438 13.1043 29.9323 16.3354 27.3579Z" fill="black"/>
</g>
<path d="M25.1379 41.6041C25.1125 41.6041 25.0866 41.5963 25.0646 41.5802C25.0085 41.5397 24.9962 41.4616 25.0368 41.4059C26.5553 39.3146 28.1862 37.2667 29.8854 35.318C27.1217 32.4596 23.3449 30.7037 18.9547 30.2389C18.7919 30.2216 18.8146 29.9753 18.9811 29.9899C23.4728 30.466 27.3331 32.277 30.1452 35.2277C30.1901 35.2745 30.1916 35.3478 30.1491 35.3961C28.4279 37.3654 26.7755 39.4367 25.2389 41.5524C25.2145 41.5861 25.1764 41.6041 25.1379 41.6041Z" fill="white"/>
<path d="M34.8144 48.9785C36.1542 46.7886 37.7509 44.7559 39.5609 42.9341C37.3442 40.9863 34.9096 39.3355 32.3227 38.0259C32.177 37.9531 32.2856 37.7281 32.4359 37.8032C35.0805 39.1416 37.5668 40.8345 39.8261 42.8345C39.8802 42.8825 39.8822 42.9659 39.8315 43.0166C37.997 44.8487 36.3803 46.8985 35.0273 49.1094C34.9402 49.2508 34.728 49.1186 34.8144 48.9785Z" fill="white"/>
<path d="M47.3843 55.5462L49.8081 49.8216C48.1993 49.1917 46.4087 48.095 44.6216 46.6409C44.4944 46.5359 44.6494 46.3432 44.7798 46.4466C46.5914 47.9202 48.4024 49.0228 50.0181 49.6341C50.0498 49.6468 50.0752 49.6712 50.0884 49.7024C50.1021 49.7337 50.1021 49.7688 50.0889 49.8001L47.6148 55.6438C47.5492 55.7968 47.3202 55.6976 47.3843 55.5462Z" fill="white"/>
<path d="M37.0503 19.1526C37.074 18.9862 37.3216 19.0268 37.2973 19.1887C36.5268 24.5046 39.1977 31.8303 44.269 38.3064C50.0185 45.6492 57.582 50.2063 63.0771 49.6623C63.2152 49.6163 63.2873 49.892 63.1015 49.9104C51.6362 51.0826 35.2248 31.7423 37.0503 19.1526Z" fill="white"/>
<g opacity="0.52">
<path d="M21.1803 51.5565C21.0011 51.5565 20.8195 51.5086 20.6559 51.407C17.0123 49.1561 13.8649 45.0926 12.1339 42.0399C11.862 41.5594 12.0304 40.949 12.5109 40.6766C12.9923 40.4051 13.6017 40.5735 13.8742 41.0535C15.8952 44.6185 18.9699 48.0145 21.7067 49.7059C22.1769 49.9959 22.3224 50.6121 22.0319 51.0818C21.8429 51.3885 21.5153 51.5565 21.1803 51.5565Z" fill="white"/>
</g>
<g opacity="0.52">
<path d="M52.5305 18.5593C50.7883 17.0832 48.5789 16.1326 46.3084 15.8821C45.7595 15.8215 45.3635 15.3274 45.4241 14.7781C45.4851 14.2287 45.9827 13.8391 46.5281 13.8938C49.1897 14.1877 51.781 15.3025 53.8235 17.0329C54.2449 17.3904 54.2971 18.0212 53.9402 18.4426C53.5819 18.8645 52.9513 18.9156 52.5305 18.5593Z" fill="white"/>
</g>
<path d="M9.40182 27.1646L5.81539 24.8643C5.75729 24.8272 5.7402 24.7501 5.77779 24.6919C5.8149 24.6334 5.89254 24.6182 5.95016 24.6539L9.53658 26.9542C9.67497 27.0425 9.54253 27.253 9.40182 27.1646Z" fill="#451326"/>
<path d="M13.8829 26.0342C13.8742 26.0342 13.8649 26.0333 13.8556 26.0313C13.7882 26.0162 13.7457 25.9493 13.7609 25.8819L14.6935 21.7349C14.7286 21.5736 14.974 21.6277 14.9376 21.7896L14.005 25.9366C13.9918 25.9947 13.9401 26.0342 13.8829 26.0342Z" fill="#451326"/>
<path d="M11.252 26.3763C11.0501 26.3763 11.2047 26.442 10.041 20.202C10.0288 20.1341 10.0742 20.0692 10.1421 20.0569C10.2085 20.0438 10.2744 20.0897 10.2871 20.158L11.375 26.2293C11.3872 26.2972 11.3418 26.3621 11.274 26.3743C11.2666 26.3758 11.2593 26.3763 11.252 26.3763Z" fill="#451326"/>
<g clip-path="url(#clip1_229_2868)">
<path d="M66.2857 48.591C71.423 44.6832 69.7072 33.7846 62.4533 24.2483C55.1994 14.712 45.1542 10.1493 40.0169 14.0571C34.8795 17.9649 36.5953 28.8635 43.8492 38.3998C51.1032 47.936 61.1483 52.4988 66.2857 48.591Z" fill="#EAB14D"/>
<path d="M40.0184 14.0571C39.8524 14.1834 39.6938 14.3173 39.542 14.4579C44.8126 11.2028 54.4455 15.7732 61.4649 25.0013C68.4844 34.2293 70.3176 44.7327 65.7737 48.9432C65.9497 48.8344 66.1212 48.7173 66.2872 48.591C71.4246 44.6832 69.7088 33.7846 62.4548 24.2483C55.2009 14.712 45.1558 10.1493 40.0184 14.0571Z" fill="#E49542"/>
<path d="M63.3864 44.7785C67.3897 41.7334 66.0526 33.2407 60.4 25.8096C54.7474 18.3785 46.9198 14.8229 42.9165 17.8681C38.9133 20.9132 40.2503 29.4059 45.9029 36.837C51.5555 44.2682 59.3831 47.8237 63.3864 44.7785Z" fill="#F4FBFF"/>
<path d="M42.9164 17.8688C42.7156 18.0215 42.529 18.1886 42.3549 18.3678C46.5074 16.0976 53.8386 19.6587 59.2078 26.7171C64.5769 33.7756 66.0518 41.7913 62.7555 45.1872C62.9748 45.0673 63.1856 44.932 63.3863 44.7793C67.3896 41.7342 66.0525 33.2414 60.4 25.8104C54.7474 18.3793 46.9197 14.8237 42.9164 17.8688Z" fill="#DAF1F4"/>
<path d="M46.0655 22.0105C45.9104 22.1285 45.6073 21.9908 45.3884 21.703L44.8065 20.9381C44.5876 20.6503 44.5358 20.3214 44.6909 20.2034C44.8459 20.0855 45.1491 20.2232 45.368 20.511L45.9499 21.2759C46.1688 21.5637 46.2205 21.8926 46.0655 22.0105Z" fill="#2B4D66"/>
<path d="M51.9967 22.0639C51.9248 22.1186 51.8142 22.1223 51.682 22.0623C51.4176 21.9421 51.1666 21.6122 51.1215 21.3252L51.0015 20.5628C50.9562 20.2758 51.1341 20.1407 51.3985 20.2608C51.663 20.3809 51.9139 20.7108 51.9591 20.9978L52.0791 21.7603C52.1016 21.9037 52.0685 22.0092 51.9967 22.0639Z" fill="#2B4D66"/>
<path d="M59.2278 27.525L58.8157 27.8384C58.6606 27.9564 58.3575 27.8187 58.1386 27.5309C57.9197 27.2431 57.8679 26.9142 58.0229 26.7962L58.435 26.4828C58.5901 26.3648 58.8932 26.5026 59.1121 26.7904C59.331 27.0782 59.3828 27.4071 59.2278 27.525Z" fill="#2B4D66"/>
<path d="M63.2294 36.269C63.1576 36.3237 63.047 36.3274 62.9148 36.2674L62.2121 35.9482C61.9476 35.828 61.6967 35.4981 61.6514 35.2111C61.6063 34.9243 61.784 34.7891 62.0485 34.9091L62.7512 35.2283C63.0157 35.3484 63.2666 35.6783 63.3119 35.9654C63.3344 36.1088 63.3013 36.2144 63.2294 36.269Z" fill="#2B4D66"/>
<path d="M61.5381 42.4119C61.3831 42.5298 61.0799 42.3921 60.861 42.1043L60.2792 41.3395C60.0602 41.0516 60.0085 40.7228 60.1635 40.6048C60.3186 40.4869 60.6217 40.6246 60.8407 40.9124L61.4225 41.6773C61.6414 41.9651 61.6932 42.294 61.5381 42.4119Z" fill="#2B4D66"/>
<path d="M55.1412 42.3549C55.0694 42.4096 54.9588 42.4133 54.8265 42.3532C54.5621 42.2331 54.3111 41.9031 54.2659 41.6162L54.1459 40.8537C54.1009 40.5669 54.2785 40.4316 54.543 40.5518C54.8074 40.6719 55.0584 41.0019 55.1036 41.2888L55.2236 42.0513C55.2462 42.1947 55.213 42.3003 55.1412 42.3549Z" fill="#2B4D66"/>
<path d="M48.2043 35.819L47.7923 36.1324C47.6372 36.2503 47.3341 36.1126 47.1151 35.8248C46.8962 35.537 46.8444 35.2081 46.9995 35.0902L47.4115 34.7767C47.5666 34.6588 47.8697 34.7965 48.0887 35.0843C48.3076 35.3721 48.3594 35.701 48.2043 35.819Z" fill="#2B4D66"/>
<path d="M44.4951 27.7075C44.4233 27.7621 44.3127 27.7659 44.1805 27.7058L43.4777 27.3867C43.2133 27.2665 42.9623 26.9366 42.9171 26.6497C42.8719 26.3628 43.0496 26.2275 43.3141 26.3476L44.0169 26.6668C44.2813 26.7869 44.5323 27.1169 44.5775 27.4038C44.6 27.5473 44.5669 27.6528 44.4951 27.7075Z" fill="#2B4D66"/>
<path d="M53.5499 31.8449L51.1656 33.6586C51.0105 33.7765 50.7073 33.6388 50.4884 33.351C50.2695 33.0632 50.2177 32.7343 50.3727 32.6163L52.4763 31.0162L47.4331 24.3861C47.2141 24.0983 47.1624 23.7694 47.3174 23.6515C47.4725 23.5335 47.7756 23.6712 47.9945 23.9591L53.4342 31.1102C53.6531 31.398 53.705 31.727 53.5499 31.8449Z" fill="#2B4D66"/>
<path d="M58.5181 32.4031C58.4749 32.436 58.4169 32.4508 58.346 32.4428L53.3741 31.8844C53.1361 31.8577 52.8428 31.5848 52.719 31.2749C52.5952 30.965 52.6878 30.7354 52.9258 30.7622L57.8977 31.3205C58.1357 31.3473 58.429 31.6202 58.5527 31.93C58.6397 32.1477 58.62 32.3257 58.5181 32.4031Z" fill="#DA4A54"/>
<path d="M54.2091 32.7148C54.623 32.4 54.4848 31.5221 53.9004 30.7539C53.3161 29.9857 52.5069 29.6182 52.0931 29.9329C51.6792 30.2477 51.8174 31.1257 52.4018 31.8939C52.9861 32.6621 53.7953 33.0296 54.2091 32.7148Z" fill="#365E7D"/>
</g>
</g>
<defs>
<clipPath id="clip0_229_2868">
<rect width="75" height="75" fill="white"/>
</clipPath>
<clipPath id="clip1_229_2868">
<rect width="23.3747" height="43.3894" fill="white" transform="translate(30.7148 21.1328) rotate(-37.259)"/>
</clipPath>
</defs>
</svg>
